# Wavefront OBJ file
# Exported by Misfit Model 3D 1.3.8
# Tue Apr 20 15:13:20 2010

mtllib rock.mtl

# 49 Vertices
v -0.369998 12.135119 13.925111
v 6.034528 17.415917 2.5101
v 12.712492 11.115156 -12.983184
v 4.092561 0.604088 -18.902585
v -7.404218 0.60405 14.806677
v -4.764889 7.160346 17.870357
v -3.468778 11.311958 5.476737
v 3.896591 20.357366 -0.791841
v 9.743873 14.40171 -15.359397
v 1.61694 1.769719 -6.80842
v -0.94344 0.604082 -16.916454
v -10.060941 0.604134 -5.934418
v -11.945304 0.604045 8.28993
v -9.578242 6.295113 10.965579
v 3.319454 9.220659 16.24209
v 7.344982 12.970828 3.957068
v 10.693409 7.901514 -7.655725
v 9.764677 0.604076 -13.326755
v -2.386321 0.604085 17.11285
v 0.133271 4.344379 20.214545
v -6.353182 14.000384 4.471082
v 1.675788 17.162046 -8.155026
v 4.504674 15.151526 -15.482674
v 1.937927 9.16574 -19.815512
v -1.080318 6.2948 -15.96178
v -9.800272 2.380936 -7.716384
v -13.646741 2.57454 -0.481871
v -11.004877 8.632665 3.083588
v 5.912234 5.507939 13.173424
v 9.431247 8.793468 4.449566
v 12.317968 5.361356 -4.59916
v 10.64593 0.604082 -7.63627
v 1.97597 0.604105 15.513514
v 2.438959 0.603806 17.175853
v -5.761407 14.661592 -5.996243
v -2.542754 14.607224 -10.586077
v -1.09993 13.794093 -14.321597
v -1.412149 11.908087 -15.924446
v -3.022966 11.073859 -13.456367
v -7.913255 8.0603 -9.348716
v -11.192217 7.72103 -5.822159
v -9.491344 9.905297 -5.427852
v 8.696262 2.412066 7.90784
v 10.997907 4.910659 4.456019
v 11.96644 3.011832 -0.122692
v 9.57104 0.604076 -1.256097
v 6.616144 0.604059 11.206385
v 9.123226 0.604071 4.292393
v -5.326483 12.13843 -11.269687

# 282 Texture Coordinates
vt 1.0 0.532124
vt 0.672982 0.000014
vt 0.67614 0.257251
vt 0.887378 0.698502
vt 0.67614 0.257251
vt 0.591241 0.433437
vt 0.67614 0.257251
vt 0.48193 0.000014
vt 0.476737 0.2881
vt 0.688617 0.736461
vt 0.591241 0.433437
vt 0.464148 0.572265
vt 1.0 0.532124
vt 0.67614 0.257251
vt 0.887378 0.698502
vt 0.672982 0.000014
vt 0.48193 0.000014
vt 0.67614 0.257251
vt 0.887378 0.698502
vt 0.591241 0.433437
vt 0.688617 0.736461
vt 0.67614 0.257251
vt 0.476737 0.2881
vt 0.591241 0.433437
vt 0.688617 0.736461
vt 0.464148 0.572265
vt 0.475993 0.667742
vt 0.842882 0.496315
vt 0.557721 0.253344
vt 0.475235 0.334452
vt 0.557721 0.851093
vt 0.17068 0.532124
vt 0.111319 0.698502
vt 0.135095 0.000012
vt 0.058561 0.331917
vt 0.231051 0.288115
vt 0.941439 0.663046
vt 0.842882 0.496315
vt 0.631831 0.613875
vt 0.900763 0.436218
vt 0.593868 0.626065
vt 0.557721 0.851093
vt 0.593868 0.626065
vt 0.303766 0.369438
vt 0.17068 0.532124
vt 0.923401 0.369438
vt 0.888168 0.000014
vt 0.672982 0.000014
vt 0.572809 0.000014
vt 0.477223 0.189362
vt 0.663046 0.331917
vt 0.477223 0.189362
vt 0.356347 0.436218
vt 0.496315 0.583759
vt 0.368169 0.542087
vt 0.524765 1.0
vt 0.708707 0.838241
vt 0.475235 0.334452
vt 0.111319 0.112622
vt 0.10824 0.311383
vt 0.927578 0.000014
vt 0.653233 0.000017
vt 0.697749 0.089965
vt 0.346767 0.136036
vt 0.702108 0.064548
vt 0.482978 0.0
vt 0.297892 0.000012
vt 0.231051 0.288115
vt 0.427952 0.406451
vt 0.845652 0.288115
vt 0.613875 0.542087
vt 0.723302 0.678186
vt 0.824104 0.248266
vt 0.606171 0.414592
vt 0.593868 0.626065
vt 0.606171 0.414592
vt 0.380123 0.240845
vt 0.303766 0.369438
vt 0.380123 0.240845
vt 0.304252 0.000014
vt 0.162097 0.000014
vt 0.117438 0.000015
vt 0.07591 0.0
vt 0.0 0.189362
vt 0.92409 0.0
vt 0.824104 0.248266
vt 0.900763 0.436218
vt 0.606709 0.723302
vt 0.291293 0.418704
vt 0.230563 0.578744
vt 0.291293 0.418704
vt 0.10824 0.311383
vt 0.137245 0.524007
vt 1.0 0.433437
vt 0.903729 0.2881
vt 0.841141 0.530034
vt 0.476737 0.2881
vt 0.145925 0.089965
vt 0.217513 0.377476
vt 0.697749 0.089965
vt 0.517022 0.099766
vt 0.650429 0.360301
vt 0.517022 0.099766
vt 0.427952 0.406451
vt 0.640579 0.470877
vt 0.427952 0.406451
vt 0.393291 0.678186
vt 0.654778 0.711658
vt 0.692563 0.091541
vt 0.606333 0.218029
vt 0.606171 0.414592
vt 0.606333 0.218029
vt 0.491951 0.121903
vt 0.380123 0.240845
vt 0.491951 0.971697
vt 0.463637 0.880822
vt 0.304252 0.9216
vt 0.774965 0.000013
vt 0.692563 0.091541
vt 0.824104 0.248266
vt 0.602245 0.863833
vt 0.463637 0.880822
vt 0.491951 0.971697
vt 0.602245 0.000013
vt 0.491951 0.121903
vt 0.606333 0.218029
vt 0.602245 0.000013
vt 0.606333 0.218029
vt 0.692563 0.091541
vt 0.602245 0.000013
vt 0.692563 0.091541
vt 0.774965 0.000013
vt 0.213485 0.684351
vt 0.345222 0.700851
vt 0.230563 0.578744
vt 0.213485 0.684351
vt 0.230563 0.578744
vt 0.137245 0.524007
vt 0.786515 0.583926
vt 0.862755 0.667742
vt 0.902796 0.572265
vt 0.786515 0.583926
vt 0.902796 0.572265
vt 0.841141 0.530034
vt 0.315649 0.583926
vt 0.403038 0.530034
vt 0.217513 0.377476
vt 0.786515 0.583926
vt 0.738527 0.377476
vt 0.650429 0.360301
vt 0.786515 0.583926
vt 0.650429 0.360301
vt 0.640579 0.470877
vt 0.786515 0.583926
vt 0.640579 0.470877
vt 0.654778 0.711658
vt 0.842882 0.496315
vt 0.475235 0.334452
vt 0.631831 0.613875
vt 0.557721 0.851093
vt 0.111319 0.698502
vt 0.475235 1.0
vt 0.135095 0.000012
vt 0.231051 0.288115
vt 0.297892 0.000012
vt 0.941439 0.663046
vt 0.631831 0.613875
vt 0.768949 0.845652
vt 0.900763 0.356347
vt 0.557721 0.253344
vt 0.842882 0.496315
vt 0.593868 0.626065
vt 0.17068 0.532124
vt 0.557721 0.851093
vt 0.303766 0.369438
vt 0.022806 0.000014
vt 0.17068 0.532124
vt 0.572809 0.000014
vt 0.663046 0.331917
vt 0.763175 0.000012
vt 0.477223 0.189362
vt 0.496315 0.583759
vt 0.663046 0.331917
vt 0.631831 0.613875
vt 0.291293 0.418704
vt 0.606709 0.723302
vt 0.475235 0.334452
vt 0.10824 0.311383
vt 0.291293 0.418704
vt 0.927578 0.000014
vt 0.697749 0.089965
vt 0.903729 0.2881
vt 0.653233 0.000017
vt 0.517022 0.099766
vt 0.697749 0.089965
vt 0.297892 0.000012
vt 0.427952 0.406451
vt 0.517022 0.099766
vt 0.231051 0.288115
vt 0.393291 0.678186
vt 0.427952 0.406451
vt 0.824104 0.248266
vt 0.593868 0.626065
vt 0.900763 0.436218
vt 0.606171 0.414592
vt 0.303766 0.369438
vt 0.593868 0.626065
vt 0.380123 0.240845
vt 0.162097 0.000014
vt 0.303766 0.369438
vt 0.882562 0.592685
vt 1.0 0.522777
vt 0.922516 0.427191
vt 0.92409 0.0
vt 0.900763 0.436218
vt 1.0 0.189362
vt 0.606709 0.723302
vt 0.230563 0.578744
vt 0.345222 0.700851
vt 0.291293 0.418704
vt 0.137245 0.524007
vt 0.230563 0.578744
vt 1.0 0.433437
vt 0.841141 0.530034
vt 0.902796 0.572265
vt 0.476737 0.2881
vt 0.217513 0.377476
vt 0.403038 0.530034
vt 0.697749 0.089965
vt 0.650429 0.360301
vt 0.738527 0.377476
vt 0.517022 0.099766
vt 0.640579 0.470877
vt 0.650429 0.360301
vt 0.427952 0.406451
vt 0.654778 0.711658
vt 0.640579 0.470877
vt 0.692563 0.091541
vt 0.606171 0.414592
vt 0.824104 0.248266
vt 0.606333 0.218029
vt 0.380123 0.240845
vt 0.606171 0.414592
vt 0.491951 0.121903
vt 0.304252 0.000014
vt 0.380123 0.240845
vt 0.774965 0.000013
vt 0.824104 0.248266
vt 0.92409 0.0
vt 0.774965 0.768721
vt 0.882562 0.592685
vt 0.864905 0.236825
vt 0.774965 0.768721
vt 0.92409 0.610249
vt 0.882562 0.592685
vt 0.882562 0.592685
vt 0.922516 0.427191
vt 0.864905 0.236825
vt 0.702108 0.064548
vt 0.602245 0.863833
vt 0.774965 0.768721
vt 0.702108 0.064548
vt 0.774965 0.768721
vt 0.864905 0.236825
vt 0.072422 0.48193
vt 0.022806 0.672982
vt 0.162097 0.888168
vt 0.162097 0.888168
vt 0.304252 0.9216
vt 0.072422 0.48193
vt 0.304252 0.9216
vt 0.346767 0.136036
vt 0.072422 0.48193
vt 0.602245 0.863833
vt 0.702108 0.064548
vt 0.346767 0.136036
vt 0.602245 0.863833
vt 0.346767 0.136036
vt 0.463637 0.880822
vt 0.346767 0.136036
vt 0.304252 0.9216
vt 0.463637 0.880822

# 282 Vertex Normals
vn -0.695349 0.687727 -0.208618
vn -0.395488 0.902979 -0.167983
vn -0.395488 0.902979 -0.167983
vn 0.750352 -0.314356 -0.581508
vn 0.551214 -0.606137 -0.573377
vn 0.440087 -0.785211 -0.435622
vn 0.621783 -0.356149 -0.697527
vn 0.637373 0.730344 -0.245669
vn 0.734171 -0.497347 -0.462211
vn -0.15155 0.80632 -0.571734
vn -0.522675 0.303344 -0.796739
vn -0.627784 0.306899 -0.715333
vn 0.482678 -0.699696 -0.526733
vn 0.551214 -0.606137 -0.573377
vn 0.343746 -0.301576 -0.88932
vn -0.043551 0.90893 -0.414668
vn 0.137263 0.732277 -0.66703
vn 0.123788 0.94417 -0.305317
vn 0.518831 0.653578 -0.551045
vn -0.522675 0.303344 -0.796739
vn -0.15155 0.80632 -0.571734
vn 0.551214 -0.606137 -0.573377
vn -0.432812 -0.141689 -0.89028
vn -0.269358 -0.612402 -0.743242
vn -0.15155 0.80632 -0.571734
vn -0.627784 0.306899 -0.715333
vn -0.435039 0.765266 -0.474456
vn -0.149474 0.811089 0.565502
vn 0.687259 0.651358 0.321571
vn -0.106304 0.99418 0.017461
vn 0.687259 0.651358 0.321571
vn 0.983211 0.099038 0.153255
vn 0.503612 0.808035 -0.305702
vn -0.711791 -0.03796 0.701365
vn -0.607911 0.358186 0.708623
vn -0.70197 0.470901 0.534312
vn -0.607911 0.358186 0.708623
vn -0.149474 0.811089 0.565502
vn -0.383161 0.844395 0.374412
vn 0.671462 0.390825 0.629598
vn 0.894744 0.313134 0.318403
vn 0.687259 0.651358 0.321571
vn 0.894744 0.313134 0.318403
vn 0.975479 0.178569 -0.128659
vn 0.983211 0.099038 0.153255
vn 0.975479 0.178569 -0.128659
vn 0.902459 0.12174 -0.413215
vn 0.769498 0.447937 -0.45522
vn -0.212962 -0.67842 0.703132
vn -0.068556 -0.100311 0.992591
vn -0.607911 0.358186 0.708623
vn 0.132089 0.066455 0.989008
vn 0.671462 0.390825 0.629598
vn -0.149474 0.811089 0.565502
vn -0.383161 0.844395 0.374412
vn -0.304557 0.952475 0.00604
vn -0.311517 0.942256 -0.122922
vn -0.106304 0.99418 0.017461
vn 0.503612 0.808035 -0.305702
vn -0.15155 0.80632 -0.571734
vn -0.359961 -0.873344 -0.328176
vn -0.343382 -0.922276 -0.17747
vn -0.780544 -0.116191 -0.614208
vn -0.343382 -0.922276 -0.17747
vn -0.694839 -0.687623 0.210653
vn -0.973428 -0.116809 -0.196963
vn -0.955096 -0.062846 0.289556
vn -0.70197 0.470901 0.534312
vn -0.867627 0.484354 0.112358
vn -0.70197 0.470901 0.534312
vn -0.383161 0.844395 0.374412
vn -0.237038 0.914171 0.328792
vn 0.852526 0.112647 0.510402
vn 0.866805 0.387994 0.313224
vn 0.894744 0.313134 0.318403
vn 0.866805 0.387994 0.313224
vn 0.990947 0.127454 -0.042186
vn 0.975479 0.178569 -0.128659
vn 0.990947 0.127454 -0.042186
vn 0.519766 -0.854022 -0.022112
vn 0.77952 -0.514737 -0.356924
vn -0.113556 -0.974224 0.194917
vn -0.414315 -0.902809 0.115231
vn -0.411402 -0.638948 0.649995
vn 0.788866 -0.044311 0.612965
vn 0.852526 0.112647 0.510402
vn 0.671462 0.390825 0.629598
vn -0.237038 0.914171 0.328792
vn -0.311517 0.942256 -0.122922
vn -0.385872 0.89184 -0.236059
vn -0.311517 0.942256 -0.122922
vn -0.15155 0.80632 -0.571734
vn -0.435039 0.765266 -0.474456
vn -0.443579 0.051289 -0.894767
vn -0.627865 -0.146535 -0.764404
vn -0.745705 -0.066919 -0.662907
vn -0.627865 -0.146535 -0.764404
vn -0.780544 -0.116191 -0.614208
vn -0.70176 0.080869 -0.707809
vn -0.780544 -0.116191 -0.614208
vn -0.99153 0.017518 -0.128689
vn -0.857471 0.296141 -0.420766
vn -0.99153 0.017518 -0.128689
vn -0.867627 0.484354 0.112358
vn -0.810015 0.575182 -0.1142
vn -0.867627 0.484354 0.112358
vn -0.237038 0.914171 0.328792
vn -0.604062 0.781589 -0.155654
vn 0.881904 -0.102721 0.460101
vn 0.937222 0.002738 0.348723
vn 0.866805 0.387994 0.313224
vn 0.937222 0.002738 0.348723
vn 0.895909 -0.426 0.125984
vn 0.990947 0.127454 -0.042186
vn 0.895909 -0.426 0.125984
vn 0.369523 -0.928091 0.045831
vn 0.519766 -0.854022 -0.022112
vn 0.465614 -0.84774 0.254049
vn 0.881904 -0.102721 0.460101
vn 0.852526 0.112647 0.510402
vn 0.547103 -0.820064 0.16785
vn 0.369523 -0.928091 0.045831
vn 0.895909 -0.426 0.125984
vn 0.547103 -0.820064 0.16785
vn 0.895909 -0.426 0.125984
vn 0.937222 0.002738 0.348723
vn 0.547103 -0.820064 0.16785
vn 0.937222 0.002738 0.348723
vn 0.881904 -0.102721 0.460101
vn 0.547103 -0.820064 0.16785
vn 0.881904 -0.102721 0.460101
vn 0.465614 -0.84774 0.254049
vn -0.73046 0.421873 -0.537076
vn -0.604062 0.781589 -0.155654
vn -0.385872 0.89184 -0.236059
vn -0.73046 0.421873 -0.537076
vn -0.385872 0.89184 -0.236059
vn -0.435039 0.765266 -0.474456
vn -0.73046 0.421873 -0.537076
vn -0.435039 0.765266 -0.474456
vn -0.627784 0.306899 -0.715333
vn -0.73046 0.421873 -0.537076
vn -0.627784 0.306899 -0.715333
vn -0.745705 -0.066919 -0.662907
vn -0.73046 0.421873 -0.537076
vn -0.745705 -0.066919 -0.662907
vn -0.70176 0.080869 -0.707809
vn -0.73046 0.421873 -0.537076
vn -0.70176 0.080869 -0.707809
vn -0.857471 0.296141 -0.420766
vn -0.73046 0.421873 -0.537076
vn -0.857471 0.296141 -0.420766
vn -0.810015 0.575182 -0.1142
vn -0.73046 0.421873 -0.537076
vn -0.810015 0.575182 -0.1142
vn -0.604062 0.781589 -0.155654
vn -0.149474 0.811089 0.565502
vn -0.304557 0.952475 0.00604
vn -0.383161 0.844395 0.374412
vn 0.687259 0.651358 0.321571
vn 0.682904 0.608096 -0.404798
vn 0.288565 0.95721 -0.021901
vn -0.711791 -0.03796 0.701365
vn -0.70197 0.470901 0.534312
vn -0.955096 -0.062846 0.289556
vn -0.607911 0.358186 0.708623
vn -0.383161 0.844395 0.374412
vn -0.70197 0.470901 0.534312
vn 0.671462 0.390825 0.629598
vn 0.687259 0.651358 0.321571
vn -0.149474 0.811089 0.565502
vn 0.894744 0.313134 0.318403
vn 0.983211 0.099038 0.153255
vn 0.687259 0.651358 0.321571
vn 0.975479 0.178569 -0.128659
vn 0.716921 -0.597314 -0.3595
vn 0.993946 -0.067836 -0.086432
vn -0.212962 -0.67842 0.703132
vn -0.607911 0.358186 0.708623
vn -0.483264 -0.734641 0.476192
vn 0.132089 0.066455 0.989008
vn -0.149474 0.811089 0.565502
vn -0.607911 0.358186 0.708623
vn -0.383161 0.844395 0.374412
vn -0.311517 0.942256 -0.122922
vn -0.237038 0.914171 0.328792
vn -0.106304 0.99418 0.017461
vn -0.15155 0.80632 -0.571734
vn -0.311517 0.942256 -0.122922
vn -0.688195 0.302246 -0.659572
vn -0.780544 -0.116191 -0.614208
vn -0.627865 -0.146535 -0.764404
vn -0.343382 -0.922276 -0.17747
vn -0.99153 0.017518 -0.128689
vn -0.780544 -0.116191 -0.614208
vn -0.955096 -0.062846 0.289556
vn -0.867627 0.484354 0.112358
vn -0.99153 0.017518 -0.128689
vn -0.70197 0.470901 0.534312
vn -0.237038 0.914171 0.328792
vn -0.867627 0.484354 0.112358
vn 0.852526 0.112647 0.510402
vn 0.894744 0.313134 0.318403
vn 0.671462 0.390825 0.629598
vn 0.866805 0.387994 0.313224
vn 0.975479 0.178569 -0.128659
vn 0.894744 0.313134 0.318403
vn 0.990947 0.127454 -0.042186
vn 0.902459 0.12174 -0.413215
vn 0.975479 0.178569 -0.128659
vn -0.113556 -0.974224 0.194917
vn -0.068556 -0.100311 0.992591
vn -0.212962 -0.67842 0.703132
vn 0.788866 -0.044311 0.612965
vn 0.671462 0.390825 0.629598
vn 0.132089 0.066455 0.989008
vn -0.237038 0.914171 0.328792
vn -0.385872 0.89184 -0.236059
vn -0.604062 0.781589 -0.155654
vn -0.311517 0.942256 -0.122922
vn -0.435039 0.765266 -0.474456
vn -0.385872 0.89184 -0.236059
vn -0.443579 0.051289 -0.894767
vn -0.745705 -0.066919 -0.662907
vn -0.627784 0.306899 -0.715333
vn -0.627865 -0.146535 -0.764404
vn -0.70176 0.080869 -0.707809
vn -0.745705 -0.066919 -0.662907
vn -0.780544 -0.116191 -0.614208
vn -0.857471 0.296141 -0.420766
vn -0.70176 0.080869 -0.707809
vn -0.971027 0.203245 -0.125687
vn -0.810015 0.575182 -0.1142
vn -0.857471 0.296141 -0.420766
vn -0.867627 0.484354 0.112358
vn -0.604062 0.781589 -0.155654
vn -0.810015 0.575182 -0.1142
vn 0.881904 -0.102721 0.460101
vn 0.866805 0.387994 0.313224
vn 0.852526 0.112647 0.510402
vn 0.937222 0.002738 0.348723
vn 0.990947 0.127454 -0.042186
vn 0.866805 0.387994 0.313224
vn 0.895909 -0.426 0.125984
vn 0.519766 -0.854022 -0.022112
vn 0.990947 0.127454 -0.042186
vn 0.465614 -0.84774 0.254049
vn 0.852526 0.112647 0.510402
vn 0.73847 -0.354145 0.573797
vn 0.465614 -0.84774 0.254049
vn -0.113556 -0.974224 0.194917
vn -0.119327 -0.958302 0.259651
vn 0.465614 -0.84774 0.254049
vn 0.034616 -0.912553 0.407492
vn -0.113556 -0.974224 0.194917
vn -0.113556 -0.974224 0.194917
vn -0.212962 -0.67842 0.703132
vn -0.119327 -0.958302 0.259651
vn -0.146303 -0.98905 -0.019385
vn 0.547103 -0.820064 0.16785
vn 0.465614 -0.84774 0.254049
vn -0.146303 -0.98905 -0.019385
vn 0.465614 -0.84774 0.254049
vn -0.119327 -0.958302 0.259651
vn -0.19019 -0.968966 -0.157898
vn 0.440295 -0.897048 -0.038025
vn 0.39245 -0.917763 -0.060777
vn 0.39245 -0.917763 -0.060777
vn 0.519766 -0.854022 -0.022112
vn -0.19019 -0.968966 -0.157898
vn 0.519766 -0.854022 -0.022112
vn -0.343382 -0.922276 -0.17747
vn -0.19019 -0.968966 -0.157898
vn 0.547103 -0.820064 0.16785
vn -0.146303 -0.98905 -0.019385
vn -0.343382 -0.922276 -0.17747
vn 0.547103 -0.820064 0.16785
vn -0.343382 -0.922276 -0.17747
vn 0.369523 -0.928091 0.045831
vn -0.343382 -0.922276 -0.17747
vn 0.519766 -0.854022 -0.022112
vn 0.369523 -0.928091 0.045831

# Vertex_Object, 9 grouped triangles

usemtl Texture_0
o Vertex_Object
g Vertex_Object

f 3/1/1 4/2/2 10/3/3
f 9/4/4 10/5/5 24/6/6
f 10/7/7 11/8/8 25/9/9
f 23/10/10 24/11/11 38/12/12
f 3/13/13 10/14/14 9/15/15
f 4/16/16 11/17/17 10/18/18
f 9/19/19 24/20/20 23/21/21
f 10/22/22 25/23/23 24/24/24
f 23/25/25 38/26/26 37/27/27
# SphereUV.obj, 85 grouped triangles

usemtl Texture_0
o SphereUV.obj
g SphereUV.obj

f 1/28/28 2/29/29 8/30/30
f 2/31/31 3/32/32 9/33/33
f 5/34/34 6/35/35 14/36/36
f 6/37/37 1/38/38 7/39/39
f 15/40/40 16/41/41 2/42/42
f 16/43/43 17/44/44 3/45/45
f 17/46/46 18/47/47 4/48/48
f 19/49/49 20/50/50 6/51/51
f 20/52/52 15/53/53 1/54/54
f 7/55/55 8/56/56 22/57/57
f 8/58/58 9/59/59 23/60/60
f 11/61/61 12/62/62 26/63/63
f 12/64/64 13/65/65 27/66/66
f 13/67/67 14/68/68 28/69/69
f 14/70/70 7/71/71 21/72/72
f 29/73/73 30/74/74 16/75/75
f 30/76/76 31/77/77 17/78/78
f 31/79/79 32/80/80 18/81/81
f 33/82/82 34/83/83 20/84/84
f 34/85/85 29/86/86 15/87/87
f 21/88/88 22/89/89 36/90/90
f 22/91/91 23/92/92 37/93/93
f 24/94/94 25/95/95 39/96/96
f 25/97/97 26/98/98 40/99/99
f 26/100/100 27/101/101 41/102/102
f 27/103/103 28/104/104 42/105/105
f 28/106/106 21/107/107 35/108/108
f 43/109/109 44/110/110 30/111/111
f 44/112/112 45/113/113 31/114/114
f 45/115/115 46/116/116 32/117/117
f 47/118/118 43/119/119 29/120/120
f 48/121/121 46/122/122 45/123/123
f 48/124/124 45/125/125 44/126/126
f 48/127/127 44/128/128 43/129/129
f 48/130/130 43/131/131 47/132/132
f 49/133/133 35/134/134 36/135/135
f 49/136/136 36/137/137 37/138/138
f 49/139/139 37/140/140 38/141/141
f 49/142/142 38/143/143 39/144/144
f 49/145/145 39/146/146 40/147/147
f 49/148/148 40/149/149 41/150/150
f 49/151/151 41/152/152 42/153/153
f 49/154/154 42/155/155 35/156/156
f 1/157/157 8/158/158 7/159/159
f 2/160/160 9/161/161 8/162/162
f 5/163/163 14/164/164 13/165/165
f 6/166/166 7/167/167 14/168/168
f 15/169/169 2/170/170 1/171/171
f 16/172/172 3/173/173 2/174/174
f 17/175/175 4/176/176 3/177/177
f 19/178/178 6/179/179 5/180/180
f 20/181/181 1/182/182 6/183/183
f 7/184/184 22/185/185 21/186/186
f 8/187/187 23/188/188 22/189/189
f 11/190/190 26/191/191 25/192/192
f 12/193/193 27/194/194 26/195/195
f 13/196/196 28/197/197 27/198/198
f 14/199/199 21/200/200 28/201/201
f 29/202/202 16/203/203 15/204/204
f 30/205/205 17/206/206 16/207/207
f 31/208/208 18/209/209 17/210/210
f 33/211/211 20/212/212 19/213/213
f 34/214/214 15/215/215 20/216/216
f 21/217/217 36/218/218 35/219/219
f 22/220/220 37/221/221 36/222/222
f 24/223/223 39/224/224 38/225/225
f 25/226/226 40/227/227 39/228/228
f 26/229/229 41/230/230 40/231/231
f 27/232/232 42/233/233 41/234/234
f 28/235/235 35/236/236 42/237/237
f 43/238/238 30/239/239 29/240/240
f 44/241/241 31/242/242 30/243/243
f 45/244/244 32/245/245 31/246/246
f 47/247/247 29/248/248 34/249/249
f 47/250/250 33/251/251 5/252/252
f 47/253/253 34/254/254 33/255/255
f 33/256/256 19/257/257 5/258/258
f 13/259/259 48/260/260 47/261/261
f 13/262/262 47/263/263 5/264/264
f 11/265/265 4/266/266 18/267/267
f 18/268/268 32/269/269 11/270/270
f 32/271/271 12/272/272 11/273/273
f 48/274/274 13/275/275 12/276/276
f 48/277/277 12/278/278 46/279/279
f 12/280/280 32/281/281 46/282/282
