# Wavefront OBJ file
# Exported by Misfit Model 3D 1.3.8
# Thu Apr 22 10:44:25 2010

mtllib bush.mtl

# 120 Vertices
v -6.590145 0.902568 7.145805
v 10.285396 -0.271486 -12.010106
v -18.968948 20.283708 -4.947256
v -2.093407 19.109654 -24.103164
v 6.200264 11.028626 -16.301512
v -10.675277 12.202682 2.854397
v -8.269535 6.807415 5.304426
v 8.606006 5.633362 -13.851482
v 2.801462 15.73817 -19.584357
v -14.074079 16.912226 -0.428446
v 0.395107 0.359334 -12.25288
v 0.395105 0.353573 13.303157
v 12.790915 23.194594 -12.247733
v 12.790913 23.188835 13.308304
v 3.55832 12.714441 13.305943
v 3.558322 12.720201 -12.250094
v 1.457307 6.679932 -12.251455
v 1.457305 6.674172 13.304582
v 7.077511 18.382244 13.307221
v 7.077515 18.388001 -12.248815
v 2.543563 -0.300213 9.407915
v -0.928653 1.766006 -15.826693
v -20.810427 10.330774 13.49183
v -24.282644 12.396992 -11.742776
v -10.750512 9.661338 -13.828759
v -7.278297 7.595121 11.40585
v -2.037271 4.072133 10.396234
v -5.509487 6.138352 -14.838374
v -16.898874 12.032905 -12.788575
v -13.42666 9.966688 12.446034
v 8.369544 1.619048 -8.935091
v -10.509505 -1.104257 8.073033
v 20.341374 18.269173 7.01965
v 1.462327 15.545868 24.02777
v -6.342029 9.194061 14.347883
v 12.537019 11.917365 -2.66024
v 10.13842 7.086241 -6.096238
v -8.740628 4.362936 10.911886
v -3.081999 13.166302 18.602549
v 15.797049 15.889607 1.594427
v 8.776004 -0.286041 5.936477
v -9.804304 1.501338 -11.51885
v -4.908145 14.820934 22.049469
v -23.488453 16.608314 4.594142
v -14.94742 11.2217 -5.048929
v 3.63289 9.434323 12.4064
v 6.500613 4.925915 8.892205
v -12.079695 6.713293 -8.563123
v -18.626371 14.778817 -0.768634
v -0.046061 12.991439 16.686695
v -8.903621 0.497134 -7.001033
v 12.517028 0.302993 6.935579
v 1.188177 18.951784 -22.255102
v 22.608827 18.757644 -8.318493
v 16.12914 11.284887 1.536722
v -5.291509 11.479029 -12.399888
v -7.346342 6.26796 -9.314188
v 14.074307 6.073819 4.622424
v 18.864859 15.741603 -2.606007
v -2.555791 15.935744 -16.54262
v -9.091447 -1.876517 -5.743335
v 13.543317 3.365893 4.900704
v -8.61152 21.009527 -18.035764
v 14.023242 26.251939 -7.391726
v 12.325822 15.593952 1.467158
v -10.308942 10.351542 -9.17688
v -9.945284 4.351074 -6.994851
v 12.689478 9.593486 3.649189
v 12.629253 21.294361 -1.985665
v -10.00551 16.051949 -12.629704
v 11.3389 0.062949 -2.544655
v -14.042759 0.741099 0.357489
v 13.188003 23.690115 8.106307
v -12.193654 24.368265 11.008451
v -13.450223 13.286209 2.608287
v 11.931436 12.608059 -0.293855
v 11.577947 6.43949 -1.943986
v -13.803711 7.11764 0.958157
v -12.940314 19.18106 5.690399
v 12.441346 18.50291 2.788256
v -3.317133 -1.444884 8.687866
v 5.535512 2.777017 -14.911229
v -13.291163 22.540983 9.237438
v -4.438518 26.762884 -14.361656
v 3.454091 15.280789 -13.455088
v -5.398554 11.058889 10.144006
v -3.862041 4.873648 9.613849
v 4.990603 9.09555 -13.985248
v 0.564581 21.294053 -13.463241
v -8.288063 17.072152 10.135854
v -1.141811 1.509949 -12.167405
v 1.426898 -0.811552 13.153008
v 20.935539 15.174574 -13.154271
v 23.504247 12.853071 12.166142
v 10.326348 8.331349 13.088444
v 7.757638 10.652851 -12.231972
v 2.931136 6.458454 -12.126896
v 5.499846 4.136952 13.19352
v 16.186707 11.505105 12.784904
v 13.617997 13.826606 -12.535508
v -10.302267 -0.73758 -0.230518
v 15.046523 2.306144 -1.364493
v -12.71097 10.672098 -23.449538
v 12.637821 13.715822 -24.583512
v 13.628518 10.514989 -11.028922
v -11.720272 7.471265 -9.894947
v -11.045223 3.77817 -4.717641
v 14.303568 6.821893 -5.851616
v 13.044914 13.093305 -17.154309
v -12.303879 10.049581 -16.020337
v 11.037031 1.196704 -4.348396
v -13.782067 -0.344504 1.546352
v 15.526212 13.893 17.872235
v -9.292888 12.351793 23.766983
v -12.156478 8.414357 10.680727
v 12.662619 9.955562 4.785979
v 11.742316 5.97077 -0.130683
v -13.076782 4.429562 5.764062
v -10.941882 11.330287 16.557014
v 13.877217 12.871495 10.662268

# 288 Texture Coordinates
vt 1.0 0.778184
vt 1.0 1.0
vt 0.0 1.0
vt 0.0 0.268148
vt 0.0 0.0
vt 1.0 0.0
vt 1.0 0.268148
vt 1.0 0.528366
vt 0.0 0.528366
vt 0.0 0.778184
vt 0.0 0.528366
vt 1.0 0.528366
vt 1.0 0.778184
vt 0.0 1.0
vt 0.0 0.778184
vt 0.0 0.268148
vt 1.0 0.0
vt 1.0 0.268148
vt 1.0 0.268148
vt 0.0 0.528366
vt 0.0 0.268148
vt 0.0 0.778184
vt 1.0 0.528366
vt 1.0 0.778184
vt 1.0 0.778184
vt 1.0 1.0
vt 0.0 1.0
vt 0.0 0.268148
vt 0.0 0.0
vt 1.0 0.0
vt 1.0 0.268148
vt 1.0 0.528366
vt 0.0 0.528366
vt 0.0 0.778184
vt 0.0 0.528366
vt 1.0 0.528366
vt 1.0 0.778184
vt 0.0 1.0
vt 0.0 0.778184
vt 0.0 0.268148
vt 1.0 0.0
vt 1.0 0.268148
vt 1.0 0.268148
vt 0.0 0.528366
vt 0.0 0.268148
vt 0.0 0.778184
vt 1.0 0.528366
vt 1.0 0.778184
vt 1.0 0.778184
vt 1.0 1.0
vt 0.0 1.0
vt 0.0 0.268148
vt 0.0 0.0
vt 1.0 0.0
vt 1.0 0.268148
vt 1.0 0.528366
vt 0.0 0.528366
vt 0.0 0.778184
vt 0.0 0.528366
vt 1.0 0.528366
vt 1.0 0.778184
vt 0.0 1.0
vt 0.0 0.778184
vt 0.0 0.268148
vt 1.0 0.0
vt 1.0 0.268148
vt 1.0 0.268148
vt 0.0 0.528366
vt 0.0 0.268148
vt 0.0 0.778184
vt 1.0 0.528366
vt 1.0 0.778184
vt 1.0 0.778184
vt 1.0 1.0
vt 0.0 1.0
vt 0.0 0.268148
vt 0.0 0.0
vt 1.0 0.0
vt 1.0 0.268148
vt 1.0 0.528366
vt 0.0 0.528366
vt 0.0 0.778184
vt 0.0 0.528366
vt 1.0 0.528366
vt 1.0 0.778184
vt 0.0 1.0
vt 0.0 0.778184
vt 0.0 0.268148
vt 1.0 0.0
vt 1.0 0.268148
vt 1.0 0.268148
vt 0.0 0.528366
vt 0.0 0.268148
vt 0.0 0.778184
vt 1.0 0.528366
vt 1.0 0.778184
vt 1.0 0.778184
vt 1.0 1.0
vt 0.0 1.0
vt 0.0 0.268148
vt 0.0 0.0
vt 1.0 0.0
vt 1.0 0.268148
vt 1.0 0.528366
vt 0.0 0.528366
vt 0.0 0.778184
vt 0.0 0.528366
vt 1.0 0.528366
vt 1.0 0.778184
vt 0.0 1.0
vt 0.0 0.778184
vt 0.0 0.268148
vt 1.0 0.0
vt 1.0 0.268148
vt 1.0 0.268148
vt 0.0 0.528366
vt 0.0 0.268148
vt 0.0 0.778184
vt 1.0 0.528366
vt 1.0 0.778184
vt 1.0 0.778184
vt 1.0 1.0
vt 0.0 1.0
vt 0.0 0.268148
vt 0.0 0.0
vt 1.0 0.0
vt 1.0 0.268148
vt 1.0 0.528366
vt 0.0 0.528366
vt 0.0 0.778184
vt 0.0 0.528366
vt 1.0 0.528366
vt 1.0 0.778184
vt 0.0 1.0
vt 0.0 0.778184
vt 0.0 0.268148
vt 1.0 0.0
vt 1.0 0.268148
vt 1.0 0.268148
vt 0.0 0.528366
vt 0.0 0.268148
vt 0.0 0.778184
vt 1.0 0.528366
vt 1.0 0.778184
vt 1.0 0.778184
vt 1.0 1.0
vt 0.0 1.0
vt 0.0 0.268148
vt 0.0 0.0
vt 1.0 0.0
vt 1.0 0.268148
vt 1.0 0.528366
vt 0.0 0.528366
vt 0.0 0.778184
vt 0.0 0.528366
vt 1.0 0.528366
vt 1.0 0.778184
vt 0.0 1.0
vt 0.0 0.778184
vt 0.0 0.268148
vt 1.0 0.0
vt 1.0 0.268148
vt 1.0 0.268148
vt 0.0 0.528366
vt 0.0 0.268148
vt 0.0 0.778184
vt 1.0 0.528366
vt 1.0 0.778184
vt 1.0 0.778184
vt 1.0 1.0
vt 0.0 1.0
vt 0.0 0.268148
vt 0.0 0.0
vt 1.0 0.0
vt 1.0 0.268148
vt 1.0 0.528366
vt 0.0 0.528366
vt 0.0 0.778184
vt 0.0 0.528366
vt 1.0 0.528366
vt 1.0 0.778184
vt 0.0 1.0
vt 0.0 0.778184
vt 0.0 0.268148
vt 1.0 0.0
vt 1.0 0.268148
vt 1.0 0.268148
vt 0.0 0.528366
vt 0.0 0.268148
vt 0.0 0.778184
vt 1.0 0.528366
vt 1.0 0.778184
vt 1.0 0.778184
vt 1.0 1.0
vt 0.0 1.0
vt 0.0 0.268148
vt 0.0 0.0
vt 1.0 0.0
vt 1.0 0.268148
vt 1.0 0.528366
vt 0.0 0.528366
vt 0.0 0.778184
vt 0.0 0.528366
vt 1.0 0.528366
vt 1.0 0.778184
vt 0.0 1.0
vt 0.0 0.778184
vt 0.0 0.268148
vt 1.0 0.0
vt 1.0 0.268148
vt 1.0 0.268148
vt 0.0 0.528366
vt 0.0 0.268148
vt 0.0 0.778184
vt 1.0 0.528366
vt 1.0 0.778184
vt 1.0 0.778184
vt 1.0 1.0
vt 0.0 1.0
vt 0.0 0.268148
vt 0.0 0.0
vt 1.0 0.0
vt 1.0 0.268148
vt 1.0 0.528366
vt 0.0 0.528366
vt 0.0 0.778184
vt 0.0 0.528366
vt 1.0 0.528366
vt 1.0 0.778184
vt 0.0 1.0
vt 0.0 0.778184
vt 0.0 0.268148
vt 1.0 0.0
vt 1.0 0.268148
vt 1.0 0.268148
vt 0.0 0.528366
vt 0.0 0.268148
vt 0.0 0.778184
vt 1.0 0.528366
vt 1.0 0.778184
vt 1.0 0.778184
vt 1.0 1.0
vt 0.0 1.0
vt 0.0 0.268148
vt 0.0 0.0
vt 1.0 0.0
vt 1.0 0.268148
vt 1.0 0.528366
vt 0.0 0.528366
vt 0.0 0.778184
vt 0.0 0.528366
vt 1.0 0.528366
vt 1.0 0.778184
vt 0.0 1.0
vt 0.0 0.778184
vt 0.0 0.268148
vt 1.0 0.0
vt 1.0 0.268148
vt 1.0 0.268148
vt 0.0 0.528366
vt 0.0 0.268148
vt 0.0 0.778184
vt 1.0 0.528366
vt 1.0 0.778184
vt 1.0 0.778184
vt 1.0 1.0
vt 0.0 1.0
vt 0.0 0.268148
vt 0.0 0.0
vt 1.0 0.0
vt 1.0 0.268148
vt 1.0 0.528366
vt 0.0 0.528366
vt 0.0 0.778184
vt 0.0 0.528366
vt 1.0 0.528366
vt 1.0 0.778184
vt 0.0 1.0
vt 0.0 0.778184
vt 0.0 0.268148
vt 1.0 0.0
vt 1.0 0.268148
vt 1.0 0.268148
vt 0.0 0.528366
vt 0.0 0.268148
vt 0.0 0.778184
vt 1.0 0.528366
vt 1.0 0.778184

# 288 Vertex Normals
vn 0.432878 0.838905 0.329932
vn 0.366276 0.891059 0.268061
vn 0.366276 0.891059 0.268061
vn 0.687999 0.437102 0.579309
vn 0.703775 0.386121 0.596331
vn 0.703775 0.386121 0.596331
vn 0.670005 0.486867 0.560406
vn 0.587662 0.65305 0.47768
vn 0.620581 0.595453 0.51021
vn 0.49539 0.776799 0.388808
vn 0.620581 0.595453 0.51021
vn 0.587662 0.65305 0.47768
vn 0.432878 0.838905 0.329932
vn 0.366276 0.891059 0.268061
vn 0.49539 0.776799 0.388808
vn 0.687999 0.437102 0.579309
vn 0.703775 0.386121 0.596331
vn 0.670005 0.486867 0.560406
vn 0.670005 0.486867 0.560406
vn 0.620581 0.595453 0.51021
vn 0.687999 0.437102 0.579309
vn 0.49539 0.776799 0.388808
vn 0.587662 0.65305 0.47768
vn 0.432878 0.838905 0.329932
vn -0.720321 0.693641 0.000156
vn -0.643768 0.765221 0.000172
vn -0.643768 0.765221 0.000172
vn -0.975344 0.220689 0.00005
vn -0.986171 0.16573 0.000037
vn -0.986171 0.16573 0.000037
vn -0.961408 0.275126 0.000062
vn -0.886 0.463685 0.000104
vn -0.917818 0.397001 0.000089
vn -0.789683 0.613515 0.000138
vn -0.917818 0.397001 0.000089
vn -0.886 0.463685 0.000104
vn -0.720321 0.693641 0.000156
vn -0.643768 0.765221 0.000172
vn -0.789683 0.613515 0.000138
vn -0.975344 0.220689 0.00005
vn -0.986171 0.16573 0.000037
vn -0.961408 0.275126 0.000062
vn -0.961408 0.275126 0.000062
vn -0.917818 0.397001 0.000089
vn -0.975344 0.220689 0.00005
vn -0.789683 0.613515 0.000138
vn -0.886 0.463685 0.000104
vn -0.720321 0.693641 0.000156
vn 0.162651 0.984962 0.058269
vn 0.059475 0.995533 0.073331
vn 0.059475 0.995533 0.073331
vn 0.644986 0.763745 -0.026213
vn 0.686082 0.726686 -0.034902
vn 0.686082 0.726686 -0.034902
vn 0.601726 0.798513 -0.017413
vn 0.430309 0.902562 0.014693
vn 0.495026 0.868873 0.003029
vn 0.265163 0.963272 0.042387
vn 0.495026 0.868873 0.003029
vn 0.430309 0.902562 0.014693
vn 0.162651 0.984962 0.058269
vn 0.059475 0.995533 0.073331
vn 0.265163 0.963272 0.042387
vn 0.644986 0.763745 -0.026213
vn 0.686082 0.726686 -0.034902
vn 0.601726 0.798513 -0.017413
vn 0.601726 0.798513 -0.017413
vn 0.495026 0.868873 0.003029
vn 0.644986 0.763745 -0.026213
vn 0.265163 0.963272 0.042387
vn 0.430309 0.902562 0.014693
vn 0.162651 0.984962 0.058269
vn -0.351647 0.903316 -0.245692
vn -0.289536 0.941845 -0.17058
vn -0.289536 0.941845 -0.17058
vn -0.598485 0.557847 -0.574998
vn -0.614903 0.510885 -0.600742
vn -0.614903 0.510885 -0.600742
vn -0.580128 0.603199 -0.54736
vn -0.498846 0.750452 -0.43356
vn -0.53095 0.700242 -0.477235
vn -0.410523 0.854268 -0.318898
vn -0.53095 0.700242 -0.477235
vn -0.498846 0.750452 -0.43356
vn -0.351647 0.903316 -0.245692
vn -0.289536 0.941845 -0.17058
vn -0.410523 0.854268 -0.318898
vn -0.598485 0.557847 -0.574998
vn -0.614903 0.510885 -0.600742
vn -0.580128 0.603199 -0.54736
vn -0.580128 0.603199 -0.54736
vn -0.53095 0.700242 -0.477235
vn -0.598485 0.557847 -0.574998
vn -0.410523 0.854268 -0.318898
vn -0.498846 0.750452 -0.43356
vn -0.351647 0.903316 -0.245692
vn 0.284557 0.936033 -0.207049
vn 0.217597 0.966989 -0.132604
vn 0.217597 0.966989 -0.132604
vn 0.566883 0.622401 -0.539686
vn 0.587684 0.577773 -0.566397
vn 0.587684 0.577773 -0.566397
vn 0.544229 0.665207 -0.511189
vn 0.448438 0.801673 -0.395251
vn 0.485603 0.755652 -0.439523
vn 0.349086 0.894277 -0.280013
vn 0.485603 0.755652 -0.439523
vn 0.448438 0.801673 -0.395251
vn 0.284557 0.936033 -0.207049
vn 0.217597 0.966989 -0.132604
vn 0.349086 0.894277 -0.280013
vn 0.566883 0.622401 -0.539686
vn 0.587684 0.577773 -0.566397
vn 0.544229 0.665207 -0.511189
vn 0.544229 0.665207 -0.511189
vn 0.485603 0.755652 -0.439523
vn 0.566883 0.622401 -0.539686
vn 0.349086 0.894277 -0.280013
vn 0.448438 0.801673 -0.395251
vn 0.284557 0.936033 -0.207049
vn -0.26578 0.867447 0.42059
vn -0.214477 0.914749 0.342395
vn -0.214477 0.914749 0.342395
vn -0.473903 0.484745 0.735145
vn -0.488274 0.435011 0.75654
vn -0.488274 0.435011 0.75654
vn -0.457993 0.533108 0.711364
vn -0.388723 0.693034 0.607123
vn -0.415907 0.637916 0.648139
vn -0.314688 0.809929 0.49496
vn -0.415907 0.637916 0.648139
vn -0.388723 0.693034 0.607123
vn -0.26578 0.867447 0.42059
vn -0.214477 0.914749 0.342395
vn -0.314688 0.809929 0.49496
vn -0.473903 0.484745 0.735145
vn -0.488274 0.435011 0.75654
vn -0.457993 0.533108 0.711364
vn -0.457993 0.533108 0.711364
vn -0.415907 0.637916 0.648139
vn -0.473903 0.484745 0.735145
vn -0.314688 0.809929 0.49496
vn -0.388723 0.693034 0.607123
vn -0.26578 0.867447 0.42059
vn -0.442285 0.64561 0.622552
vn -0.425079 0.719053 0.549791
vn -0.425079 0.719053 0.549791
vn -0.451512 0.171684 0.875592
vn -0.444751 0.117461 0.887919
vn -0.444751 0.117461 0.887919
vn -0.456872 0.225536 0.860466
vn -0.464134 0.413296 0.783432
vn -0.46371 0.346662 0.815352
vn -0.454743 0.564137 0.689172
vn -0.46371 0.346662 0.815352
vn -0.464134 0.413296 0.783432
vn -0.442285 0.64561 0.622552
vn -0.425079 0.719053 0.549791
vn -0.454743 0.564137 0.689172
vn -0.451512 0.171684 0.875592
vn -0.444751 0.117461 0.887919
vn -0.456872 0.225536 0.860466
vn -0.456872 0.225536 0.860466
vn -0.46371 0.346662 0.815352
vn -0.451512 0.171684 0.875592
vn -0.454743 0.564137 0.689172
vn -0.464134 0.413296 0.783432
vn -0.442285 0.64561 0.622552
vn -0.070131 0.642107 -0.763401
vn -0.059995 0.718767 -0.692658
vn -0.059995 0.718766 -0.692658
vn -0.108232 0.152871 -0.982302
vn -0.110494 0.097315 -0.989101
vn -0.110494 0.097315 -0.989101
vn -0.105622 0.20812 -0.972384
vn -0.093456 0.40136 -0.91114
vn -0.098352 0.332665 -0.937902
vn -0.079598 0.557419 -0.826407
vn -0.098352 0.332665 -0.937902
vn -0.093456 0.40136 -0.91114
vn -0.070131 0.642107 -0.763401
vn -0.059995 0.718766 -0.692658
vn -0.079598 0.557419 -0.826407
vn -0.108232 0.152871 -0.982302
vn -0.110494 0.097315 -0.989101
vn -0.105622 0.20812 -0.972384
vn -0.105622 0.20812 -0.972384
vn -0.098352 0.332665 -0.937902
vn -0.108232 0.152871 -0.982302
vn -0.079598 0.557419 -0.826407
vn -0.093456 0.40136 -0.91114
vn -0.070131 0.642107 -0.763401
vn 0.723024 0.58017 0.375018
vn 0.656498 0.660458 0.364426
vn 0.656498 0.660458 0.364426
vn 0.928 0.083619 0.363077
vn 0.934226 0.028462 0.355545
vn 0.934226 0.028462 0.355545
vn 0.918828 0.138686 0.369488
vn 0.861676 0.3331 0.382829
vn 0.886706 0.263648 0.379794
vn 0.782217 0.492507 0.38154
vn 0.886706 0.263648 0.379794
vn 0.861676 0.3331 0.382829
vn 0.723024 0.58017 0.375018
vn 0.656498 0.660458 0.364426
vn 0.782217 0.492507 0.38154
vn 0.928 0.083619 0.363077
vn 0.934226 0.028462 0.355545
vn 0.918828 0.138686 0.369488
vn 0.918828 0.138686 0.369488
vn 0.886706 0.263648 0.379794
vn 0.928 0.083619 0.363077
vn 0.782217 0.492507 0.38154
vn 0.861676 0.3331 0.382829
vn 0.723024 0.58017 0.375018
vn -0.27298 0.95509 0.115261
vn -0.171346 0.979364 0.107176
vn -0.171346 0.979364 0.107176
vn -0.728762 0.671233 0.135473
vn -0.765546 0.628987 0.135332
vn -0.765546 0.628987 0.135332
vn -0.689564 0.711495 0.135188
vn -0.530447 0.837596 0.130608
vn -0.59115 0.795536 0.13291
vn -0.372699 0.919878 0.122149
vn -0.59115 0.795536 0.13291
vn -0.530447 0.837596 0.130608
vn -0.27298 0.95509 0.115261
vn -0.171346 0.979364 0.107176
vn -0.372699 0.919878 0.122149
vn -0.728762 0.671233 0.135473
vn -0.765546 0.628987 0.135332
vn -0.689564 0.711495 0.135188
vn -0.689564 0.711495 0.135188
vn -0.59115 0.795536 0.13291
vn -0.728762 0.671233 0.135473
vn -0.372699 0.919878 0.122149
vn -0.530447 0.837596 0.130608
vn -0.27298 0.95509 0.115261
vn -0.108471 0.975216 0.192844
vn -0.114808 0.989375 0.089194
vn -0.114808 0.989375 0.089194
vn -0.058528 0.737923 0.672342
vn -0.052119 0.699569 0.712662
vn -0.052119 0.699569 0.712662
vn -0.064773 0.774072 0.629776
vn -0.08553 0.88373 0.460115
vn -0.078355 0.847901 0.524333
vn -0.100852 0.950005 0.295497
vn -0.078355 0.847901 0.524333
vn -0.08553 0.88373 0.460115
vn -0.108471 0.975216 0.192844
vn -0.114808 0.989375 0.089194
vn -0.100852 0.950005 0.295497
vn -0.058528 0.737923 0.672342
vn -0.052119 0.699569 0.712662
vn -0.064773 0.774072 0.629776
vn -0.064773 0.774072 0.629776
vn -0.078355 0.847901 0.524333
vn -0.058528 0.737923 0.672342
vn -0.100852 0.950005 0.295497
vn -0.08553 0.88373 0.460115
vn -0.108471 0.975216 0.192844
vn -0.112416 0.96901 -0.21996
vn -0.089794 0.988759 -0.11955
vn -0.089794 0.988759 -0.11955
vn -0.205005 0.70514 -0.678786
vn -0.211498 0.664475 -0.716758
vn -0.211498 0.664474 -0.716758
vn -0.197845 0.743711 -0.638554
vn -0.166888 0.862881 -0.477058
vn -0.179004 0.823475 -0.538373
vn -0.134035 0.938217 -0.319035
vn -0.179004 0.823475 -0.538373
vn -0.166888 0.862881 -0.477058
vn -0.112416 0.96901 -0.21996
vn -0.089794 0.988759 -0.11955
vn -0.134035 0.938217 -0.319035
vn -0.205005 0.70514 -0.678786
vn -0.211498 0.664474 -0.716758
vn -0.197845 0.743711 -0.638554
vn -0.197845 0.743711 -0.638554
vn -0.179004 0.823475 -0.538373
vn -0.205005 0.70514 -0.678786
vn -0.134035 0.938217 -0.319035
vn -0.166888 0.862881 -0.477058
vn -0.112416 0.96901 -0.21996

# Vertex_Object, 8 grouped triangles

usemtl Texture_0
o Vertex_Object
g Vertex_Object

f 9/1/1 4/2/2 3/3/3
f 7/4/4 1/5/5 2/6/6
f 8/7/7 5/8/8 6/9/9
f 10/10/10 6/11/11 5/12/12
f 9/13/13 3/14/14 10/15/15
f 7/16/16 2/17/17 8/18/18
f 8/19/19 6/20/20 7/21/21
f 10/22/22 5/23/23 9/24/24
# Vertex_Object_12, 8 grouped triangles

usemtl Texture_0_1
o Vertex_Object_12
g Vertex_Object_12

f 19/25/25 14/26/26 13/27/27
f 17/28/28 11/29/29 12/30/30
f 18/31/31 15/32/32 16/33/33
f 20/34/34 16/35/35 15/36/36
f 19/37/37 13/38/38 20/39/39
f 17/40/40 12/41/41 18/42/42
f 18/43/43 16/44/44 17/45/45
f 20/46/46 15/47/47 19/48/48
# Vertex_Object_22, 8 grouped triangles

usemtl Texture_0_2
o Vertex_Object_22
g Vertex_Object_22

f 29/49/49 24/50/50 23/51/51
f 27/52/52 21/53/53 22/54/54
f 28/55/55 25/56/56 26/57/57
f 30/58/58 26/59/59 25/60/60
f 29/61/61 23/62/62 30/63/63
f 27/64/64 22/65/65 28/66/66
f 28/67/67 26/68/68 27/69/69
f 30/70/70 25/71/71 29/72/72
# Vertex_Object_32, 8 grouped triangles

usemtl Texture_0
o Vertex_Object_32
g Vertex_Object_32

f 39/73/73 34/74/74 33/75/75
f 37/76/76 31/77/77 32/78/78
f 38/79/79 35/80/80 36/81/81
f 40/82/82 36/83/83 35/84/84
f 39/85/85 33/86/86 40/87/87
f 37/88/88 32/89/89 38/90/90
f 38/91/91 36/92/92 37/93/93
f 40/94/94 35/95/95 39/96/96
# Vertex_Object_4, 8 grouped triangles

usemtl Texture_0
o Vertex_Object_4
g Vertex_Object_4

f 49/97/97 44/98/98 43/99/99
f 47/100/100 41/101/101 42/102/102
f 48/103/103 45/104/104 46/105/105
f 50/106/106 46/107/107 45/108/108
f 49/109/109 43/110/110 50/111/111
f 47/112/112 42/113/113 48/114/114
f 48/115/115 46/116/116 47/117/117
f 50/118/118 45/119/119 49/120/120
# Vertex_Object_5, 8 grouped triangles

usemtl Texture_0
o Vertex_Object_5
g Vertex_Object_5

f 59/121/121 54/122/122 53/123/123
f 57/124/124 51/125/125 52/126/126
f 58/127/127 55/128/128 56/129/129
f 60/130/130 56/131/131 55/132/132
f 59/133/133 53/134/134 60/135/135
f 57/136/136 52/137/137 58/138/138
f 58/139/139 56/140/140 57/141/141
f 60/142/142 55/143/143 59/144/144
# Vertex_Object_62, 8 grouped triangles

usemtl Texture_0_3
o Vertex_Object_62
g Vertex_Object_62

f 69/145/145 64/146/146 63/147/147
f 67/148/148 61/149/149 62/150/150
f 68/151/151 65/152/152 66/153/153
f 70/154/154 66/155/155 65/156/156
f 69/157/157 63/158/158 70/159/159
f 67/160/160 62/161/161 68/162/162
f 68/163/163 66/164/164 67/165/165
f 70/166/166 65/167/167 69/168/168
# Vertex_Object_72, 8 grouped triangles

usemtl Texture_0_4
o Vertex_Object_72
g Vertex_Object_72

f 79/169/169 74/170/170 73/171/171
f 77/172/172 71/173/173 72/174/174
f 78/175/175 75/176/176 76/177/177
f 80/178/178 76/179/179 75/180/180
f 79/181/181 73/182/182 80/183/183
f 77/184/184 72/185/185 78/186/186
f 78/187/187 76/188/188 77/189/189
f 80/190/190 75/191/191 79/192/192
# Vertex_Object_82, 8 grouped triangles

usemtl Texture_0_5
o Vertex_Object_82
g Vertex_Object_82

f 89/193/193 84/194/194 83/195/195
f 87/196/196 81/197/197 82/198/198
f 88/199/199 85/200/200 86/201/201
f 90/202/202 86/203/203 85/204/204
f 89/205/205 83/206/206 90/207/207
f 87/208/208 82/209/209 88/210/210
f 88/211/211 86/212/212 87/213/213
f 90/214/214 85/215/215 89/216/216
# Vertex_Object_92, 8 grouped triangles

usemtl Texture_0_6
o Vertex_Object_92
g Vertex_Object_92

f 99/217/217 94/218/218 93/219/219
f 97/220/220 91/221/221 92/222/222
f 98/223/223 95/224/224 96/225/225
f 100/226/226 96/227/227 95/228/228
f 99/229/229 93/230/230 100/231/231
f 97/232/232 92/233/233 98/234/234
f 98/235/235 96/236/236 97/237/237
f 100/238/238 95/239/239 99/240/240
# Vertex_Object_102, 8 grouped triangles

usemtl Texture_0_7
o Vertex_Object_102
g Vertex_Object_102

f 109/241/241 104/242/242 103/243/243
f 107/244/244 101/245/245 102/246/246
f 108/247/247 105/248/248 106/249/249
f 110/250/250 106/251/251 105/252/252
f 109/253/253 103/254/254 110/255/255
f 107/256/256 102/257/257 108/258/258
f 108/259/259 106/260/260 107/261/261
f 110/262/262 105/263/263 109/264/264
# Vertex_Object_112, 8 grouped triangles

usemtl Texture_0_8
o Vertex_Object_112
g Vertex_Object_112

f 119/265/265 114/266/266 113/267/267
f 117/268/268 111/269/269 112/270/270
f 118/271/271 115/272/272 116/273/273
f 120/274/274 116/275/275 115/276/276
f 119/277/277 113/278/278 120/279/279
f 117/280/280 112/281/281 118/282/282
f 118/283/283 116/284/284 117/285/285
f 120/286/286 115/287/287 119/288/288
